<svg xmlns="http://www.w3.org/2000/svg" xmlns:xlink="http://www.w3.org/1999/xlink" width="158" height="158" viewBox="0 0 158 158"><defs><style>.a,.b{stroke:#fff;}.a{stroke-width:5px;fill:url(#a);}.b{fill:#fff;}.c{stroke:none;}.d{fill:none;}.e{filter:url(#b);}</style><linearGradient id="a" x1="1.163" y1="-0.089" x2="-0.081" y2="1.196" gradientUnits="objectBoundingBox"><stop offset="0" stop-color="#5bba97"/><stop offset="0.2" stop-color="#5bba97"/><stop offset="0.36" stop-color="#43b3ab"/><stop offset="0.71" stop-color="#13a5d3"/><stop offset="0.89" stop-color="#009fe3"/><stop offset="1" stop-color="#009fe3"/></linearGradient><filter id="b" x="0" y="0" width="158" height="158" filterUnits="userSpaceOnUse"><feOffset dy="10" input="SourceAlpha"/><feGaussianBlur stdDeviation="10" result="c"/><feFlood flood-opacity="0.102"/><feComposite operator="in" in2="c"/><feComposite in="SourceGraphic"/></filter></defs><g transform="translate(-604 -1535)"><g class="e" transform="matrix(1, 0, 0, 1, 604, 1535)"><g class="a" transform="translate(35 25)"><circle class="c" cx="44" cy="44" r="44"/><circle class="d" cx="44" cy="44" r="46.5"/></g></g><g transform="translate(609.938 1578.744)"><path class="b" d="M87.783,32.833l-2.95-.866-6.417-4.191v-.96a8.541,8.541,0,0,0,3.371-6,1.961,1.961,0,0,0,1.646-1.933V16.243c0-.01,0-.02,0-.03V12.867a1.451,1.451,0,0,0,.607-1.184V8.621l4.429-.754a1.57,1.57,0,0,0,.212-3.044L73.749.074a1.562,1.562,0,0,0-.952,0L57.868,4.823a1.575,1.575,0,0,0-.489,2.741v4h-.037a1.526,1.526,0,0,0-1.525,1.525v1.987l-.984,5.777a1.639,1.639,0,0,0,1.615,1.914h3.332A1.639,1.639,0,0,0,61.4,20.855l-.984-5.777V13.092a1.526,1.526,0,0,0-1.525-1.525h-.036V8l3.661.623v3.061a1.453,1.453,0,0,0,.6,1.182v6.019a1.961,1.961,0,0,0,1.646,1.933,8.542,8.542,0,0,0,3.368,6v.965l-6.416,4.191-2.947.865a7.486,7.486,0,0,0-5.38,7.187v2.194a.736.736,0,1,0,1.472,0V40.02a6.05,6.05,0,0,1,4.323-5.774l2.746-.806L72.9,39.959a.745.745,0,0,0,.752,0L84.622,33.44l2.746.806A6.05,6.05,0,0,1,91.69,40.02v7.11a1.656,1.656,0,0,1-1.654,1.654H86.792V45.611a.736.736,0,1,0-1.472,0v3.173H61.227V45.611a.736.736,0,0,0-1.472,0v3.173H56.513a1.656,1.656,0,0,1-1.654-1.654V45.655a.736.736,0,0,0-1.472,0V47.13a3.13,3.13,0,0,0,3.126,3.126H90.036a3.13,3.13,0,0,0,3.126-3.126v-7.11a7.486,7.486,0,0,0-5.38-7.186Zm-28-11.536H56.449a.166.166,0,0,1-.164-.194l.89-5.225h1.88l.89,5.225a.166.166,0,0,1-.164.194Zm-.841-8.205v1.313H57.29V13.092a.052.052,0,0,1,.052-.052h1.545A.052.052,0,0,1,58.94,13.092Zm11.7,23.537.293.45-7.516-4.466L68.19,29.5A15.463,15.463,0,0,0,70.642,36.629Zm-.005-3.178a18.93,18.93,0,0,0,5.276,0,14.061,14.061,0,0,1-1.239,2.375l-1.4,2.15-1.4-2.15a14.061,14.061,0,0,1-1.239-2.375Zm5.271,3.178A15.462,15.462,0,0,0,78.36,29.5l4.771,3.116-7.516,4.466Zm4.306-23.488h1.745v2.365h-.866a.88.88,0,0,1-.879-.879V13.141Zm-21.9-6.915,14.93-4.749a.1.1,0,0,1,.059,0l14.93,4.749a.082.082,0,0,1,.068.1c-.005.077-.049.084-.081.089l-4.936.841L81.43,7.026a.736.736,0,1,0-.181,1.461l1.316.163v3.018H63.984V8.65L71.6,7.708a13.636,13.636,0,0,1,3.343,0l2.883.357A.736.736,0,1,0,78.009,6.6l-2.883-.357a15.1,15.1,0,0,0-3.7,0L63.265,7.256l-4.938-.841c-.032-.005-.076-.013-.081-.089a.082.082,0,0,1,.068-.1Zm6.275,9.28V13.141h1.748v1.487a.88.88,0,0,1-.879.879h-.868Zm1.62,4.932a1.141,1.141,0,0,0-1.134-1.069.486.486,0,0,1-.486-.486v-1.9h.868a2.354,2.354,0,0,0,2.351-2.351V13.141H78.742v1.487a2.354,2.354,0,0,0,2.351,2.351h.868v1.9a.486.486,0,0,1-.486.486,1.141,1.141,0,0,0-1.134,1.069,7.08,7.08,0,0,1-14.131,0Zm7.065,8.1a8.5,8.5,0,0,0,3.669-.832v.467a14.03,14.03,0,0,1-.5,3.7,17.383,17.383,0,0,1-6.344,0,14.029,14.029,0,0,1-.5-3.7c0-.016,0-.031,0-.046s0-.006,0-.009v-.413A8.5,8.5,0,0,0,73.275,28.539Z" transform="translate(0 0)"/></g></g></svg>