<svg xmlns="http://www.w3.org/2000/svg" xmlns:xlink="http://www.w3.org/1999/xlink" width="158" height="158" viewBox="0 0 158 158"><defs><style>.a{stroke:#fff;stroke-width:5px;fill:url(#a);}.b{fill:#fff;}.c{stroke:none;}.d{fill:none;}.e{filter:url(#b);}</style><linearGradient id="a" x1="1.163" y1="-0.089" x2="-0.081" y2="1.196" gradientUnits="objectBoundingBox"><stop offset="0" stop-color="#5bba97"/><stop offset="0.2" stop-color="#5bba97"/><stop offset="0.36" stop-color="#43b3ab"/><stop offset="0.71" stop-color="#13a5d3"/><stop offset="0.89" stop-color="#009fe3"/><stop offset="1" stop-color="#009fe3"/></linearGradient><filter id="b" x="0" y="0" width="158" height="158" filterUnits="userSpaceOnUse"><feOffset dy="10" input="SourceAlpha"/><feGaussianBlur stdDeviation="10" result="c"/><feFlood flood-opacity="0.102"/><feComposite operator="in" in2="c"/><feComposite in="SourceGraphic"/></filter></defs><g transform="translate(-181 -1535)"><g class="e" transform="matrix(1, 0, 0, 1, 181, 1535)"><g class="a" transform="translate(35 25)"><circle class="c" cx="44" cy="44" r="44"/><circle class="d" cx="44" cy="44" r="46.5"/></g></g><path class="b" d="M25.5,0H4.5A4.5,4.5,0,0,0,0,4.5v39A4.5,4.5,0,0,0,4.5,48h21A4.5,4.5,0,0,0,30,43.5V4.5A4.5,4.5,0,0,0,25.5,0ZM15,45a3,3,0,1,1,3-3A3,3,0,0,1,15,45ZM25.5,34.875A1.128,1.128,0,0,1,24.375,36H5.625A1.128,1.128,0,0,1,4.5,34.875V5.625A1.128,1.128,0,0,1,5.625,4.5h18.75A1.128,1.128,0,0,1,25.5,5.625Z" transform="translate(245 1580)"/></g></svg>