<svg xmlns="http://www.w3.org/2000/svg" xmlns:xlink="http://www.w3.org/1999/xlink" width="158" height="158" viewBox="0 0 158 158"><defs><style>.a{stroke:#fff;stroke-width:5px;fill:url(#a);}.b{fill:#fff;}.c{stroke:none;}.d{fill:none;}.e{filter:url(#b);}</style><linearGradient id="a" x1="1.163" y1="-0.089" x2="-0.081" y2="1.196" gradientUnits="objectBoundingBox"><stop offset="0" stop-color="#5bba97"/><stop offset="0.2" stop-color="#5bba97"/><stop offset="0.36" stop-color="#43b3ab"/><stop offset="0.71" stop-color="#13a5d3"/><stop offset="0.89" stop-color="#009fe3"/><stop offset="1" stop-color="#009fe3"/></linearGradient><filter id="b" x="0" y="0" width="158" height="158" filterUnits="userSpaceOnUse"><feOffset dy="10" input="SourceAlpha"/><feGaussianBlur stdDeviation="10" result="c"/><feFlood flood-opacity="0.102"/><feComposite operator="in" in2="c"/><feComposite in="SourceGraphic"/></filter></defs><g transform="translate(-1027 -1535)"><g class="e" transform="matrix(1, 0, 0, 1, 1027, 1535)"><g class="a" transform="translate(35 25)"><circle class="c" cx="44" cy="44" r="44"/><circle class="d" cx="44" cy="44" r="46.5"/></g></g><g transform="translate(1083.667 1581)"><path class="b" d="M44.578,0H.756A.755.755,0,0,0,0,.756v27.2a.755.755,0,0,0,.756.756H8.311V30.08A4.52,4.52,0,0,0,7.838,37.6a6.806,6.806,0,0,0-4.06,6.219v.756a.755.755,0,0,0,.756.756H40.8a.755.755,0,0,0,.756-.756v-.756A6.806,6.806,0,0,0,37.5,37.6a4.52,4.52,0,0,0-.473-7.523V28.711h7.556a.755.755,0,0,0,.756-.756V.756A.755.755,0,0,0,44.578,0ZM7.556,34a3.022,3.022,0,1,1,3.022,3.022A3.025,3.025,0,0,1,7.556,34ZM5.289,43.822a5.289,5.289,0,0,1,10.578,0ZM13.317,37.6a4.512,4.512,0,0,0,.63-6.625H19.3a4.511,4.511,0,0,0,.629,6.625,6.834,6.834,0,0,0-3.3,3.117A6.834,6.834,0,0,0,13.317,37.6ZM19.644,34a3.022,3.022,0,1,1,3.022,3.022A3.025,3.025,0,0,1,19.644,34Zm-2.267,9.822a5.289,5.289,0,1,1,10.578,0ZM25.406,37.6a4.512,4.512,0,0,0,.63-6.625h5.35a4.511,4.511,0,0,0,.629,6.625,6.834,6.834,0,0,0-3.3,3.117A6.834,6.834,0,0,0,25.406,37.6Zm14.638,6.219H29.467a5.289,5.289,0,0,1,10.578,0ZM37.778,34a3.022,3.022,0,1,1-3.022-3.022A3.025,3.025,0,0,1,37.778,34ZM36.267,23.422H34v1.511h1.511v4.533H9.822V24.178a.755.755,0,0,0-.756-.756H6.8V21.911H38.533v1.511ZM27.121,12.089a3.788,3.788,0,0,1,2.36.828l2.536,2.029a.755.755,0,0,0,1.087-.151l3.328-4.66,1.808,1.355-3.708,5.1A2.266,2.266,0,0,1,31.248,17l-2.054-1.711a.755.755,0,0,0-1.239.58V20.4H23.422V13.6H21.911v6.8H17.378V15.867a.755.755,0,0,0-1.239-.58L14.085,17a2.266,2.266,0,0,1-3.284-.409l-3.708-5.1L8.9,10.135l3.328,4.66a.755.755,0,0,0,1.087.151l2.536-2.029a3.786,3.786,0,0,1,2.359-.828h8.909ZM19.644,7.556a3.022,3.022,0,1,1,3.022,3.022A3.025,3.025,0,0,1,19.644,7.556ZM43.822,27.2h-6.8V24.933h2.267a.755.755,0,0,0,.756-.756V21.156a.755.755,0,0,0-.756-.756H29.467V17.48l.814.678a3.777,3.777,0,0,0,5.473-.68l4.146-5.7a.755.755,0,0,0-.158-1.049L36.719,8.463a.755.755,0,0,0-1.068.165l-3.314,4.639-1.912-1.53a5.307,5.307,0,0,0-3.3-1.16H26.036a4.533,4.533,0,1,0-6.74,0H18.212a5.307,5.307,0,0,0-3.3,1.159L13,13.268,9.681,8.628a.755.755,0,0,0-1.068-.165L5.591,10.729a.755.755,0,0,0-.158,1.049l4.146,5.7a3.777,3.777,0,0,0,5.473.68l.814-.678V20.4H6.044a.755.755,0,0,0-.756.756v3.022a.755.755,0,0,0,.756.756H8.311V27.2h-6.8V1.511H43.822Z"/><g transform="translate(40.889 2.667)"><g transform="translate(0 0)"><rect class="b" width="1" height="1" transform="translate(0.444 0.333)"/></g></g><g transform="translate(37.334 2.667)"><g transform="translate(0 0)"><rect class="b" width="2" height="1" transform="translate(0 0.333)"/></g></g><g transform="translate(35.556 2.667)"><g transform="translate(0 0)"><rect class="b" width="1" height="1" transform="translate(-0.222 0.333)"/></g></g><g transform="translate(31.111 23.111)"><g transform="translate(0 0)"><rect class="b" width="1" height="2" transform="translate(0.222 -0.111)"/></g></g></g></g></svg>