<svg xmlns="http://www.w3.org/2000/svg" xmlns:xlink="http://www.w3.org/1999/xlink" width="178" height="64.013" viewBox="0 0 178 64.013"><defs><style>.a{fill:#ffd526;}.b{fill:url(#a);}.c{fill:#fff;}.d{fill:#129bdb;}</style><linearGradient id="a" y1="0.5" x2="1" y2="0.5" gradientUnits="objectBoundingBox"><stop offset="0.201" stop-color="#54ad84"/><stop offset="0.364" stop-color="#3da59c"/><stop offset="0.714" stop-color="#1195cc"/><stop offset="0.888" stop-color="#0090df"/></linearGradient></defs><g transform="translate(-495.796 -250.457)"><path class="a" d="M546.511,879.848v18.1l-14.969-6.765Z" transform="translate(-8.945 -612.687)"/><g transform="translate(495.796 250.457)"><path class="b" d="M537.23,921.581a5.43,5.43,0,0,1-3.843-1.6l-15.346-15.347a2.835,2.835,0,0,0-2.018-.835H503.763a7.977,7.977,0,0,1-7.967-7.968v-30.3a7.976,7.976,0,0,1,7.967-7.967h52.591a7.976,7.976,0,0,1,7.967,7.967v39.822a2.543,2.543,0,0,1-.421,1.405c-.022.062-.046.123-.074.184a2.557,2.557,0,0,1-3.38,1.284l-17.767-7.988v15.892a5.452,5.452,0,0,1-5.448,5.446Zm-33.467-58.9a2.858,2.858,0,0,0-2.854,2.854v30.3a2.858,2.858,0,0,0,2.854,2.854h12.259a7.919,7.919,0,0,1,5.634,2.333L537,916.368a.33.33,0,0,0,.564-.234V897.944l-18.4-8.274a3.736,3.736,0,0,1-1.605-6.617l4.652-3.627,14.106-10.6a4.139,4.139,0,0,1,6.362,3.491v22.32l16.529,7.432V865.535a2.858,2.858,0,0,0-2.854-2.854ZM522.6,885.608l14.969,6.73V874.273l-12.247,9.212Z" transform="translate(-495.796 -857.568)"/></g><path class="a" d="M558.061,864.41H505.47a2.857,2.857,0,0,0-2.854,2.854v30.3a2.858,2.858,0,0,0,2.854,2.855h12.259a7.916,7.916,0,0,1,5.634,2.333L538.709,918.1a.331.331,0,0,0,.564-.234V899.672l-18.4-8.274a3.735,3.735,0,0,1-1.605-6.617l4.652-3.626,14.106-10.6a4.138,4.138,0,0,1,6.362,3.49v22.32l16.529,7.432V867.264A2.857,2.857,0,0,0,558.061,864.41Z" transform="translate(-1.707 -608.823)"/><path class="c" d="M546.511,879.848v18.1l-14.969-6.765Z" transform="translate(-8.945 -612.687)"/><g transform="translate(574.431 279.272)"><path class="d" d="M612,912.586a1.753,1.753,0,0,1-1.864,1.722h-7.879a1.464,1.464,0,0,1-1.58-1.439V899.682a1.893,1.893,0,0,1,1.886-1.887,1.913,1.913,0,0,1,1.911,1.887v11.205h5.661A1.735,1.735,0,0,1,612,912.586Z" transform="translate(-600.676 -896.45)"/><path class="d" d="M628.5,910.747h-8.068a3.6,3.6,0,0,0,3.609,2.1,5.163,5.163,0,0,0,2.571-.661,1.851,1.851,0,0,1,.944-.283,1.51,1.51,0,0,1,1.51,1.533,1.7,1.7,0,0,1-1.038,1.51,9.363,9.363,0,0,1-4.151.873c-4.034,0-6.865-2.642-6.865-6.416a6.437,6.437,0,0,1,12.856-.542C629.864,910.205,629.2,910.747,628.5,910.747Zm-1.982-2.429a3.2,3.2,0,0,0-6.156,0Z" transform="translate(-604.763 -897.725)"/><path class="d" d="M648.644,904.59v10.073a.806.806,0,0,1-.9.92H646.19a.813.813,0,0,1-.92-.92V914.5a4.652,4.652,0,0,1-3.3,1.321,6.466,6.466,0,0,1,0-12.927,5.042,5.042,0,0,1,3.373,1.179,1.691,1.691,0,0,1,3.3.519Zm-3.373,4.742a3.161,3.161,0,0,0-6.322,0,3.161,3.161,0,1,0,6.322,0Z" transform="translate(-609.433 -897.725)"/><path class="d" d="M662.863,906.195a3.153,3.153,0,0,0-3.114,3.232v5.5a.6.6,0,0,1-.661.661h-2.052a.6.6,0,0,1-.661-.661V909.45a6.612,6.612,0,0,1,3.161-5.638,6.268,6.268,0,0,1,3.68-.92,3.717,3.717,0,0,1,1.416.165,1.645,1.645,0,0,1,1.037,1.557,1.614,1.614,0,0,1-1.627,1.628C663.641,906.241,663.311,906.195,662.863,906.195Z" transform="translate(-614.614 -897.725)"/><path class="d" d="M681.79,907.586v7.336a.6.6,0,0,1-.66.661h-2.053a.6.6,0,0,1-.661-.661v-6.345a2.238,2.238,0,0,0-2.336-2.454,2.267,2.267,0,0,0-2.359,2.454v6.345a.6.6,0,0,1-.661.661h-2.053a.6.6,0,0,1-.66-.661V904.59a1.68,1.68,0,0,1,3.349-.212,4.609,4.609,0,0,1,3.562-1.486C680.162,902.892,681.79,904.9,681.79,907.586Z" transform="translate(-618.111 -897.725)"/><path class="d" d="M689.073,897.935a1.946,1.946,0,1,1,1.958,1.958A1.948,1.948,0,0,1,689.073,897.935Zm3.656,15a.806.806,0,0,1-.9.92h-1.557a.813.813,0,0,1-.921-.92V902.866a1.687,1.687,0,1,1,3.373,0Z" transform="translate(-622.796 -896.001)"/><path class="d" d="M709.388,907.586v7.336a.6.6,0,0,1-.661.661h-2.052a.6.6,0,0,1-.661-.661v-6.345a2.238,2.238,0,0,0-2.336-2.454,2.267,2.267,0,0,0-2.359,2.454v6.345a.6.6,0,0,1-.661.661h-2.052a.6.6,0,0,1-.661-.661V904.59a1.681,1.681,0,0,1,3.35-.212,4.609,4.609,0,0,1,3.562-1.486C707.761,902.892,709.388,904.9,709.388,907.586Z" transform="translate(-625.017 -897.725)"/><path class="d" d="M728.859,904.59v10.073c0,3.492-2.547,6.417-6.887,6.417-2.689,0-5.709-1.156-5.709-2.948a1.565,1.565,0,0,1,1.58-1.581c1.227,0,2.265,1.2,4.341,1.2,1.816,0,3.208-1.3,3.208-2.524,0-.166-.047-.307-.235-.307-.165,0-.424.236-.755.4a4.78,4.78,0,0,1-2.217.495,6.466,6.466,0,0,1,0-12.927,5.042,5.042,0,0,1,3.373,1.179,1.691,1.691,0,0,1,3.3.519Zm-3.373,4.742a3.161,3.161,0,0,0-6.321,0,3.161,3.161,0,1,0,6.321,0Z" transform="translate(-629.505 -897.725)"/></g><g transform="translate(572.444 251.563)"><path class="d" d="M608.476,877.895c1.479,0,2.218-.706,2.218-1.781,0-1.244-.975-1.748-2.956-2.453l-2.857-1.008c-4.032-1.41-5.779-3.729-5.813-6.183-.1-4.267,3.091-7.426,9-7.426a13.877,13.877,0,0,1,6.754,1.68,2.8,2.8,0,0,1,1.512,2.386,2.416,2.416,0,0,1-2.419,2.452,9.926,9.926,0,0,1-3.394-.907,11.708,11.708,0,0,0-3.192-.638c-1.377,0-2.083.807-2.083,1.748,0,1.108.907,1.781,2.755,2.419l3.427,1.21c4.133,1.444,5.275,3.864,5.308,5.913.068,4.065-3.024,7.56-9.441,7.56a17.951,17.951,0,0,1-7.291-1.714c-1.412-.738-1.983-1.646-1.983-2.62a2.417,2.417,0,0,1,2.419-2.452c1.042,0,2.419.739,4.2,1.176A17.9,17.9,0,0,0,608.476,877.895Z" transform="translate(-598.026 -859.044)"/><path class="d" d="M655.352,872.946v10.08a1.148,1.148,0,0,1-1.277,1.311h-2.218a1.159,1.159,0,0,1-1.311-1.311v-8.669a3.345,3.345,0,1,0-6.686-.067v8.735a1.148,1.148,0,0,1-1.277,1.311h-2.218a1.158,1.158,0,0,1-1.31-1.311v-8.669a3.171,3.171,0,0,0-3.327-3.495,3.212,3.212,0,0,0-3.36,3.495v8.669a1.148,1.148,0,0,1-1.276,1.311h-2.218a1.159,1.159,0,0,1-1.311-1.311V868.679a2.4,2.4,0,0,1,2.386-2.419,2.375,2.375,0,0,1,2.386,2.117,6.664,6.664,0,0,1,5.208-2.117,6.884,6.884,0,0,1,5.242,2.15,8.26,8.26,0,0,1,5.779-2.15C653.032,866.26,655.352,869.116,655.352,872.946Z" transform="translate(-605.417 -860.85)"/><path class="d" d="M686.921,868.679v14.347a1.148,1.148,0,0,1-1.277,1.311h-2.218a1.159,1.159,0,0,1-1.311-1.311v-.235a6.625,6.625,0,0,1-4.7,1.881,9.209,9.209,0,0,1,0-18.413,7.179,7.179,0,0,1,4.8,1.68,2.409,2.409,0,0,1,4.7.739Zm-4.805,6.754a4.5,4.5,0,0,0-9,0,4.5,4.5,0,1,0,9,0Z" transform="translate(-615.646 -860.85)"/><path class="d" d="M707.173,870.964a4.49,4.49,0,0,0-4.436,4.6V883.4a.85.85,0,0,1-.941.941h-2.923a.85.85,0,0,1-.94-.941v-7.8a9.416,9.416,0,0,1,4.5-8.03,8.921,8.921,0,0,1,5.242-1.311,5.294,5.294,0,0,1,2.016.235,2.344,2.344,0,0,1,1.479,2.218,2.3,2.3,0,0,1-2.319,2.318C708.281,871.031,707.811,870.964,707.173,870.964Z" transform="translate(-623.026 -860.85)"/><path class="d" d="M728.886,880.393a2.408,2.408,0,0,1-2.419,2.419h-2.016c-2.387,0-3.63-.4-4.5-1.378-.941-1.041-1.243-2.688-1.243-5.241v-6.485h-.436a2.319,2.319,0,1,1,0-4.637h.436v-2.554a2.322,2.322,0,0,1,2.452-2.352,2.3,2.3,0,0,1,2.353,2.352l-.034,2.554h3.058a2.319,2.319,0,0,1,0,4.637h-3.091l-.034,6.149c0,1.713.74,2.15,2.117,2.15h.941A2.4,2.4,0,0,1,728.886,880.393Z" transform="translate(-627.535 -859.325)"/></g></g></svg>